<?xml version="1.0" encoding="utf-8"?>
<!-- Generator: Adobe Illustrator 22.0.1, SVG Export Plug-In . SVG Version: 6.00 Build 0)  -->
<svg version="1.1" id="Layer_1" xmlns="http://www.w3.org/2000/svg" xmlns:xlink="http://www.w3.org/1999/xlink" x="0px" y="0px"
	 viewBox="0 0 45.9 46.9" style="enable-background:new 0 0 45.9 46.9;" xml:space="preserve">
<style type="text/css">
	.st0{fill:#0F5C86;}
</style>
<g>
	<path class="st0" d="M40.8,7.7H5.1c-0.9,0-1.6,0.7-1.6,1.6v14.1c0,0.9,0.7,1.6,1.6,1.6h12.3c0.4,0,0.8-0.2,0.9-0.6l0.9-2
		c0.1-0.1,7.1-0.1,7.2-0.1c0.1,0,0.1,0,0.1,0.1l0.9,2c0.2,0.4,0.5,0.6,0.9,0.6h12.3c0.9,0,1.6-0.7,1.6-1.6V9.2
		C42.3,8.4,41.6,7.7,40.8,7.7z M39.5,12.9c-0.3,0-0.5-0.2-0.5-0.5c0-0.4-0.4-0.7-0.8-0.7H7.8c-0.4,0-0.8,0.3-0.8,0.7
		c0,0.3-0.2,0.5-0.5,0.5c-0.3,0-0.5-0.2-0.5-0.5c0-1,0.8-1.8,1.9-1.8h30.3c1,0,1.9,0.8,1.9,1.8C40,12.6,39.7,12.9,39.5,12.9z"/>
	<path class="st0" d="M22.9,0C17.7,0,12.7,2.5,9.7,6.6h26.6C33.2,2.5,28.2,0,22.9,0z"/>
	<path class="st0" d="M32.6,36c-6.1,7.2-13.2,7.2-19.3,0c0,1.4,0,2.5-0.1,3.7c0,1.4-0.1,2.9-0.1,4.8c0,0.2,0.1,0.4,0.3,0.5
		c6,2.4,12.7,2.6,18.9,0.3c0.2-0.1,0.4-0.3,0.4-0.5c0-2.4-0.1-4-0.1-5.8C32.6,38.1,32.6,37.1,32.6,36z"/>
	<path class="st0" d="M26.6,24.7l-0.7-1.5H20l-0.7,1.5C19,25.5,18.2,26,17.4,26H8.8c2.8,7.4,8.1,14.4,14.2,14.4s11.3-7,14.2-14.4
		h-8.6C27.7,26,26.9,25.5,26.6,24.7z"/>
	<path class="st0" d="M43.4,11.3v9.2c1.4-0.4,2.5-1.7,2.5-3.2v-2.8C45.9,13,44.8,11.7,43.4,11.3z"/>
	<path class="st0" d="M0,14.5v2.8c0,1.6,1,2.9,2.5,3.2v-9.2C1,11.7,0,13,0,14.5z"/>
</g>
</svg>
