<?xml version="1.0" encoding="utf-8"?>
<!-- Generator: Adobe Illustrator 22.0.1, SVG Export Plug-In . SVG Version: 6.00 Build 0)  -->
<svg version="1.1" id="Layer_1" xmlns="http://www.w3.org/2000/svg" xmlns:xlink="http://www.w3.org/1999/xlink" x="0px" y="0px"
	 viewBox="0 0 150 33.8" style="enable-background:new 0 0 150 33.8;" xml:space="preserve">
<style type="text/css">
	.st0{fill:#0F5C86;}
</style>
<g>
	<g>
		<g>
			<path class="st0" d="M6.3,23.2H2.1c-1.2,0-2.1-0.9-2.1-2.1S0.9,19,2.1,19h2.1V4.2H2.1C0.9,4.2,0,3.3,0,2.1S0.9,0,2.1,0h4.2
				c1.2,0,2.1,0.9,2.1,2.1v19C8.5,22.3,7.5,23.2,6.3,23.2z"/>
		</g>
		<g>
			<path class="st0" d="M25.4,23.2h-4.2c-1.2,0-2.1-0.9-2.1-2.1v-19C19,0.9,20,0,21.1,0h4.2c1.2,0,2.1,0.9,2.1,2.1s-0.9,2.1-2.1,2.1
				h-2.1V19h2.1c1.2,0,2.1,0.9,2.1,2.1S26.5,23.2,25.4,23.2z"/>
		</g>
		<g>
			<path class="st0" d="M25.4,13.7h-19c-1.2,0-2.1-0.9-2.1-2.1s0.9-2.1,2.1-2.1h19c1.2,0,2.1,0.9,2.1,2.1S26.5,13.7,25.4,13.7z"/>
		</g>
	</g>
	<g>
		<path class="st0" d="M44.4,23.2c-1.2,0-2.1-0.9-2.1-2.1h-8.5c-1.2,0-2.1-0.9-2.1-2.1v-8.5c0-1.2,0.9-2.1,2.1-2.1h10.6
			c1.2,0,2.1,0.9,2.1,2.1v10.6C46.5,22.3,45.5,23.2,44.4,23.2z M35.9,16.9h6.3v-4.2h-6.3V16.9z"/>
	</g>
	<g>
		<path class="st0" d="M52.8,33.8c-1.2,0-2.1-0.9-2.1-2.1V10.6c0-1.2,0.9-2.1,2.1-2.1h10.6c1.2,0,2.1,0.9,2.1,2.1V19
			c0,1.2-0.9,2.1-2.1,2.1h-8.5v10.6C54.9,32.9,54,33.8,52.8,33.8z M54.9,16.9h6.3v-4.2h-6.3V16.9z"/>
	</g>
	<g>
		<g>
			<path class="st0" d="M84.5,21.1H73.9c-1.2,0-2.1-0.9-2.1-2.1V6.3c0-1.2,0.9-2.1,2.1-2.1c1.2,0,2.1,0.9,2.1,2.1v10.6h8.5
				c1.2,0,2.1,0.9,2.1,2.1C86.6,20.2,85.7,21.1,84.5,21.1z"/>
		</g>
		<g>
			<path class="st0" d="M78.2,12.7h-8.5c-1.2,0-2.1-0.9-2.1-2.1s0.9-2.1,2.1-2.1h8.5c1.2,0,2.1,0.9,2.1,2.1S79.3,12.7,78.2,12.7z"/>
		</g>
	</g>
	<g>
		<g>
			<path class="st0" d="M99.3,21.1h-8.5c-1.2,0-2.1-0.9-2.1-2.1v-8.5c0-1.2,0.9-2.1,2.1-2.1h8.5c1.2,0,2.1,0.9,2.1,2.1
				s-0.9,2.1-2.1,2.1H93v4.2h6.3c1.2,0,2.1,0.9,2.1,2.1C101.4,20.2,100.5,21.1,99.3,21.1z"/>
		</g>
		<g>
			<path class="st0" d="M95.1,16.9h-4.2c-1.2,0-2.1-0.9-2.1-2.1s0.9-2.1,2.1-2.1h4.2c1.2,0,2.1,0.9,2.1,2.1S96.2,16.9,95.1,16.9z"/>
		</g>
	</g>
	<g>
		<path class="st0" d="M114.1,21.1h-8.5c-1.2,0-2.1-0.9-2.1-2.1v-8.5c0-1.2,0.9-2.1,2.1-2.1h8.5c1.2,0,2.1,0.9,2.1,2.1
			s-0.9,2.1-2.1,2.1h-6.3v4.2h6.3c1.2,0,2.1,0.9,2.1,2.1C116.2,20.2,115.3,21.1,114.1,21.1z"/>
	</g>
	<g>
		<path class="st0" d="M147.9,21.1h-8.5c-1.2,0-2.1-0.9-2.1-2.1c0-1.2,0.9-2.1,2.1-2.1h3.4l-4.8-4.8c-0.6-0.6-0.8-1.5-0.5-2.3
			c0.3-0.8,1.1-1.3,2-1.3h8.5c1.2,0,2.1,0.9,2.1,2.1s-0.9,2.1-2.1,2.1h-3.4l4.8,4.8c0.6,0.6,0.8,1.5,0.5,2.3
			C149.5,20.6,148.7,21.1,147.9,21.1z"/>
	</g>
	<g>
		<g>
			<path class="st0" d="M131,21.1c-1.2,0-2.1-0.9-2.1-2.1v-6.3h-4.2V19c0,1.2-0.9,2.1-2.1,2.1c-1.2,0-2.1-0.9-2.1-2.1v-8.5
				c0-1.2,0.9-2.1,2.1-2.1h8.5c1.2,0,2.1,0.9,2.1,2.1V19C133.1,20.2,132.2,21.1,131,21.1z"/>
		</g>
		<g>
			<path class="st0" d="M122.5,12.7c-1.2,0-2.1-0.9-2.1-2.1V2.2c0-1.2,0.9-2.1,2.1-2.1c1.2,0,2.1,0.9,2.1,2.1v8.4
				C124.6,11.7,123.7,12.7,122.5,12.7z"/>
		</g>
	</g>
</g>
</svg>
