<?xml version="1.0" encoding="utf-8"?>
<!-- Generator: Adobe Illustrator 22.0.1, SVG Export Plug-In . SVG Version: 6.00 Build 0)  -->
<svg version="1.1"
	 id="Layer_1" xmlns:cc="http://creativecommons.org/ns#" xmlns:dc="http://purl.org/dc/elements/1.1/" xmlns:inkscape="http://www.inkscape.org/namespaces/inkscape" xmlns:rdf="http://www.w3.org/1999/02/22-rdf-syntax-ns#" xmlns:sodipodi="http://sodipodi.sourceforge.net/DTD/sodipodi-0.dtd" xmlns:svg="http://www.w3.org/2000/svg"
	 xmlns="http://www.w3.org/2000/svg" xmlns:xlink="http://www.w3.org/1999/xlink" x="0px" y="0px" viewBox="0 0 90 80"
	 style="enable-background:new 0 0 90 80;" xml:space="preserve">
<style type="text/css">
	.st0{fill:#9FD6F5;}
</style>
<g transform="translate(0,-952.36218)">
	<path class="st0" d="M3,952.4c-1.7,0-3,1.3-3,3s1.3,3,3,3h9.6l10.3,48.7c0.4,1.8,1.6,3.4,3.1,3.3h50c1.6,0,3-1.4,3-3s-1.5-3-3-3
		H28.4l-1.3-6H80c1.3,0,2.6-1,2.9-2.3l7-30c0.4-1.7-1.1-3.6-2.9-3.7H19.6l-1.6-7.6c-0.3-1.3-1.6-2.4-2.9-2.4H3z M20.8,968.4h62.4
		l-5.6,24H25.9L20.8,968.4z M36,1012.4c-5.5,0-10,4.5-10,10s4.5,10,10,10s10-4.5,10-10S41.5,1012.4,36,1012.4z M66,1012.4
		c-5.5,0-10,4.5-10,10s4.5,10,10,10s10-4.5,10-10S71.5,1012.4,66,1012.4z M36,1018.4c2.2,0,4,1.8,4,4c0,2.2-1.8,4-4,4s-4-1.8-4-4
		C32,1020.1,33.8,1018.4,36,1018.4z M66,1018.4c2.2,0,4,1.8,4,4c0,2.2-1.8,4-4,4c-2.2,0-4-1.8-4-4C62,1020.1,63.8,1018.4,66,1018.4z
		"/>
</g>
</svg>
