<?xml version="1.0" encoding="utf-8"?>
<!-- Generator: Adobe Illustrator 22.0.1, SVG Export Plug-In . SVG Version: 6.00 Build 0)  -->
<svg version="1.1" id="Layer_1" xmlns="http://www.w3.org/2000/svg" xmlns:xlink="http://www.w3.org/1999/xlink" x="0px" y="0px"
	 viewBox="0 0 97.3 97.2" style="enable-background:new 0 0 97.3 97.2;" xml:space="preserve">
<style type="text/css">
	.st0{fill:#9FD6F5;}
</style>
<path class="st0" d="M95.5,87L73.1,64.7c11.7-15.8,10.3-38.6-3.9-52.8C61.6,4.2,51.4,0,40.5,0c-10.8,0-21,4.2-28.7,11.9
	C4.2,19.5,0,29.7,0,40.5c0,10.8,4.2,21,11.9,28.7c7.7,7.7,17.8,11.9,28.7,11.9c8.8,0,17.2-2.8,24.1-8L87,95.5
	c1.1,1.1,2.6,1.8,4.2,1.8c1.6,0,3.1-0.6,4.2-1.8c1.1-1.1,1.8-2.6,1.8-4.2S96.6,88.2,95.5,87z M40.5,12c7.6,0,14.8,3,20.2,8.4
	c5.4,5.4,8.4,12.6,8.4,20.2s-3,14.8-8.4,20.2c-5.4,5.4-12.6,8.4-20.2,8.4c-7.6,0-14.8-3-20.2-8.4C15,55.3,12,48.2,12,40.5
	c0-7.6,3-14.8,8.4-20.2C25.7,15,32.9,12,40.5,12z"/>
</svg>
